<svg width="24" height="24" viewBox="0 0 24 24" fill="none" xmlns="http://www.w3.org/2000/svg">
<path fill-rule="evenodd" clip-rule="evenodd" d="M13.0898 3.05034C16.0286 1.61588 19.0513 1.85881 20.9935 2.55338C21.205 2.62903 21.3715 2.79551 21.4472 3.00704C22.1417 4.94926 22.3847 7.97201 20.9503 10.9108C20.2088 12.4299 19.0347 13.8952 17.2921 15.1649C17.2373 15.9921 16.9853 17.2414 16.4035 18.4837C15.8021 19.7676 14.8212 21.0994 13.2813 21.9126C13.0308 22.0449 12.7272 22.0248 12.4964 21.8606C12.2656 21.6964 12.1469 21.4163 12.1896 21.1363C12.2584 20.6855 12.2802 19.9522 12.1235 19.2696C11.9834 18.6594 11.7298 18.2007 11.3543 17.9435C11.123 18.0105 10.8871 18.0754 10.6466 18.138C10.6249 18.1437 10.6032 18.1493 10.5816 18.155C10.2713 18.2363 9.97428 18.3142 9.65065 18.2956C9.37396 18.2798 9.08418 18.201 8.83751 18.0747C8.54872 17.9268 8.3221 17.6995 8.08305 17.4597C8.06567 17.4422 8.04822 17.4247 8.03067 17.4072L6.59347 15.97C6.57592 15.9524 6.55842 15.935 6.54098 15.9176C6.30119 15.6786 6.07386 15.4519 5.92595 15.1631C5.79962 14.9165 5.72089 14.6267 5.70503 14.35C5.68648 14.0264 5.76432 13.7294 5.84565 13.419C5.85131 13.3974 5.85699 13.3758 5.86265 13.354C5.92533 13.1134 5.9902 12.8774 6.05721 12.646C5.8003 12.2694 5.34111 12.0152 4.72976 11.8749C4.04722 11.7182 3.31387 11.74 2.86315 11.8088C2.58315 11.8515 2.30296 11.7328 2.13881 11.502C1.97465 11.2712 1.95453 10.9676 2.0868 10.7171C2.89997 9.17725 4.23177 8.19633 5.51573 7.59494C6.75949 7.01237 8.01031 6.76049 8.83756 6.70612C10.1068 4.96483 11.5714 3.79151 13.0898 3.05034ZM7.77461 8.38861C7.27359 8.50859 6.71236 8.69083 6.15198 8.95331C5.46057 9.27716 4.79271 9.71229 4.23963 10.2841C4.51032 10.3082 4.78895 10.3495 5.06532 10.4129C5.56658 10.528 6.10537 10.7276 6.57313 11.0638C6.93348 10.0776 7.33663 9.18844 7.77461 8.38861ZM12.9358 17.4279C13.2712 17.8953 13.4706 18.4334 13.5855 18.9341C13.6489 19.2104 13.6902 19.4891 13.7143 19.7598C14.2861 19.2067 14.7212 18.5388 15.0451 17.8474C15.3071 17.2881 15.4891 16.7279 15.6091 16.2276C14.8098 16.6652 13.9212 17.0679 12.9358 17.4279ZM13.7478 4.39832C11.2597 5.61281 8.73014 8.29621 7.31422 13.7321C7.20625 14.1466 7.19919 14.2052 7.20257 14.2642C7.20648 14.3324 7.22988 14.4185 7.26103 14.4794L6.7043 14.7645L7.26103 14.4794C7.28735 14.5307 7.32917 14.5844 7.65413 14.9093L9.09133 16.3465C9.4163 16.6715 9.46991 16.7133 9.5213 16.7396C9.58213 16.7708 9.66825 16.7942 9.73648 16.7981C9.79545 16.8015 9.85404 16.7944 10.2685 16.6864C15.7044 15.2705 18.3878 12.7409 19.6023 10.2528C20.7476 7.90631 20.6396 5.49025 20.147 3.85359C18.5103 3.36099 16.0943 3.25296 13.7478 4.39832ZM17.4469 6.55129C17.1352 6.23961 16.6299 6.23961 16.3182 6.55129C16.0065 6.86297 16.0065 7.36831 16.3182 7.67999C16.6299 7.99167 17.1352 7.99167 17.4469 7.67999C17.7586 7.36831 17.7586 6.86297 17.4469 6.55129ZM15.2575 5.49063C16.155 4.59316 17.6101 4.59316 18.5076 5.49063C19.405 6.3881 19.405 7.84318 18.5076 8.74065C17.6101 9.63812 16.155 9.63812 15.2575 8.74065C14.3601 7.84318 14.3601 6.3881 15.2575 5.49063ZM5.29079 18.2334C5.28839 18.2368 5.28484 18.242 5.28021 18.2492C5.26406 18.2746 5.24226 18.3132 5.21565 18.3673C5.16206 18.4764 5.10321 18.6195 5.04224 18.7873C5.00361 18.8937 4.97263 18.9791 4.94716 19.0535C5.02156 19.028 5.10693 18.997 5.21328 18.9584C5.38113 18.8974 5.52422 18.8386 5.63331 18.785C5.68747 18.7584 5.72605 18.7366 5.75139 18.7204C5.75866 18.7158 5.76386 18.7122 5.76727 18.7098C5.85808 18.6095 5.87735 18.4159 5.73102 18.2696C5.58469 18.1233 5.39114 18.1425 5.29079 18.2334ZM4.22168 17.1807C4.94209 16.4603 6.09307 16.5103 6.79168 17.2089C7.49029 17.9076 7.5403 19.0585 6.81989 19.7789C6.66052 19.9383 6.45427 20.0529 6.29467 20.1313C6.11886 20.2177 5.92069 20.2973 5.72542 20.3682L5.69457 20.3795C5.49014 20.4538 5.27791 20.5309 5.08916 20.5743C4.86969 20.6246 4.60322 20.6498 4.31457 20.5504C4.09832 20.4758 3.919 20.3444 3.78759 20.213C3.65619 20.0816 3.52478 19.9023 3.45026 19.6861C3.35078 19.3974 3.37599 19.1309 3.42636 18.9115C3.46967 18.7227 3.54683 18.5105 3.62114 18.3061C3.6249 18.2958 3.62864 18.2855 3.63237 18.2752C3.70331 18.0799 3.78296 17.8818 3.86932 17.706C3.94772 17.5464 4.06231 17.3401 4.22168 17.1807Z" fill="black"/>
</svg>
