<svg width="24" height="24" viewBox="0 0 24 24" fill="none" xmlns="http://www.w3.org/2000/svg">
<path fill-rule="evenodd" clip-rule="evenodd" d="M3.50628 3.85132V16.3604C3.50628 16.7789 3.50892 16.8957 3.52396 16.9844C3.60495 17.4618 3.95331 17.85 4.41916 17.9821C4.50571 18.0066 4.62152 18.0218 5.03764 18.067L5.05775 18.0692C5.48906 18.1161 5.72978 18.1422 5.96852 18.179C7.03676 18.3436 8.07421 18.6677 9.04618 19.1405C9.26339 19.2462 9.47618 19.3617 9.85743 19.5687L10.2314 19.7717C10.5227 19.93 10.7083 20.0303 10.8497 20.0952C10.9403 20.1369 10.9826 20.1491 10.9935 20.1521C11.0871 20.153 11.1734 20.1016 11.2173 20.019C11.2199 20.0079 11.2293 19.9649 11.2359 19.8654C11.2463 19.7102 11.2467 19.4993 11.2467 19.1677V6.55337C11.2467 6.50353 11.2194 6.45769 11.1756 6.43391L10.3964 6.01081C8.26119 4.8514 5.92109 4.11802 3.50628 3.85132ZM12 5.17275C11.9658 5.15071 11.9305 5.12984 11.8944 5.11021L11.1152 4.68711C8.79763 3.42871 6.25668 2.63488 3.63493 2.35016C2.76206 2.25537 2.00003 2.93912 2.00003 3.81713V16.3604C2.00003 16.3809 2.00002 16.4011 2.00002 16.421C1.99988 16.7504 1.99977 17.0055 2.03893 17.2363C2.21711 18.2866 2.98349 19.1407 4.00837 19.4312C4.23366 19.4951 4.48724 19.5225 4.81474 19.558C4.83456 19.5601 4.85465 19.5623 4.87503 19.5645C5.33171 19.6141 5.53758 19.6366 5.73911 19.6677C6.65829 19.8093 7.55099 20.0882 8.38733 20.495C8.5707 20.5842 8.75278 20.6829 9.15647 20.9021L9.53398 21.1071C9.79777 21.2503 10.0281 21.3754 10.2209 21.4639C10.4159 21.5536 10.6499 21.6438 10.9112 21.6564C11.3072 21.6754 11.688 21.5604 12 21.3431C12.312 21.5604 12.6928 21.6754 13.0888 21.6564C13.3501 21.6438 13.5841 21.5536 13.7791 21.4639C13.9719 21.3754 14.2022 21.2503 14.466 21.1071L14.8435 20.9021C15.2472 20.6829 15.4293 20.5842 15.6127 20.495C16.449 20.0882 17.3417 19.8093 18.2609 19.6677C18.4624 19.6366 18.6683 19.6141 19.125 19.5645C19.1453 19.5623 19.1654 19.5601 19.1853 19.558C19.5128 19.5225 19.7663 19.4951 19.9916 19.4312C21.0165 19.1407 21.7829 18.2866 21.9611 17.2363C22.0002 17.0055 22.0001 16.7504 22 16.421C22 16.4011 22 16.3809 22 16.3604V3.81713C22 2.93913 21.2379 2.25537 20.3651 2.35016C17.7433 2.63488 15.2024 3.42871 12.8848 4.68711L12.1056 5.11021C12.0695 5.12984 12.0342 5.15071 12 5.17275ZM12.753 19.1677C12.753 19.4991 12.7534 19.71 12.7639 19.8651C12.7706 19.9649 12.78 20.0079 12.7826 20.0189C12.8265 20.1015 12.9129 20.153 13.0065 20.1521C13.0174 20.1491 13.0597 20.1369 13.1503 20.0952C13.2917 20.0303 13.4773 19.93 13.7686 19.7717L14.1425 19.5687C14.5238 19.3617 14.7366 19.2462 14.9538 19.1405C15.9258 18.6677 16.9632 18.3436 18.0315 18.179C18.2702 18.1422 18.5109 18.1161 18.9423 18.0692L18.9624 18.067C19.3785 18.0218 19.4943 18.0066 19.5808 17.9821C20.0467 17.85 20.395 17.4618 20.476 16.9844C20.4911 16.8957 20.4937 16.7789 20.4937 16.3604V3.85132C18.0789 4.11802 15.7388 4.8514 13.6036 6.01081L12.8244 6.43391C12.7801 6.45794 12.753 6.50406 12.753 6.55337V19.1677ZM7.37584 9.037C7.79178 9.037 8.12897 9.37419 8.12897 9.79013V14.8109C8.12897 15.2269 7.79178 15.5641 7.37584 15.5641C6.9599 15.5641 6.62272 15.2269 6.62272 14.8109V9.79013C6.62272 9.37419 6.9599 9.037 7.37584 9.037ZM16.6232 9.037C17.0391 9.037 17.3763 9.37419 17.3763 9.79013V14.8109C17.3763 15.2269 17.0391 15.5641 16.6232 15.5641C16.2072 15.5641 15.8701 15.2269 15.8701 14.8109V9.79013C15.8701 9.37419 16.2072 9.037 16.6232 9.037Z" fill="black"/>
</svg>
