<svg width="24" height="24" viewBox="0 0 24 24" fill="none" xmlns="http://www.w3.org/2000/svg">
<path fill-rule="evenodd" clip-rule="evenodd" d="M11.9694 2H12.0306C13.52 2 14.6793 1.99999 15.6122 2.06889C16.559 2.13881 17.3317 2.28267 18.0358 2.60167C19.5274 3.27752 20.7225 4.47259 21.3983 5.96423C21.7173 6.66827 21.8612 7.44105 21.9311 8.38781C22 9.32065 22 10.48 22 11.9694V12.0306C22 13.52 22 14.6793 21.9311 15.6122C21.8612 16.559 21.7173 17.3317 21.3983 18.0358C20.7225 19.5274 19.5274 20.7225 18.0358 21.3983C17.3317 21.7173 16.559 21.8612 15.6122 21.9311C14.6793 22 13.52 22 12.0306 22H11.9694C10.48 22 9.32065 22 8.38781 21.9311C7.44105 21.8612 6.66827 21.7173 5.96423 21.3983C4.47259 20.7225 3.27752 19.5274 2.60167 18.0358C2.28267 17.3317 2.13881 16.559 2.06889 15.6122C1.99999 14.6793 2 13.52 2 12.0306V11.9694C2 10.48 1.99999 9.32066 2.06889 8.38781C2.13881 7.44105 2.28267 6.66827 2.60167 5.96423C3.27752 4.47259 4.47259 3.27752 5.96423 2.60167C6.66827 2.28267 7.44105 2.13881 8.38781 2.06889C9.32066 1.99999 10.48 2 11.9694 2ZM8.49829 3.56482C7.63466 3.6286 7.05961 3.75215 6.58329 3.96796C5.42313 4.49363 4.49363 5.42313 3.96796 6.58329C3.75215 7.05961 3.6286 7.63466 3.56482 8.49829C3.50048 9.36945 3.5 10.4736 3.5 12C3.5 13.5264 3.50048 14.6306 3.56482 15.5017C3.6286 16.3653 3.75215 16.9404 3.96796 17.4167C4.49363 18.5769 5.42313 19.5064 6.58329 20.032C7.05961 20.2479 7.63466 20.3714 8.49829 20.4352C9.36945 20.4995 10.4736 20.5 12 20.5C13.5264 20.5 14.6306 20.4995 15.5017 20.4352C16.3653 20.3714 16.9404 20.2479 17.4167 20.032C18.5769 19.5064 19.5064 18.5769 20.032 17.4167C20.2479 16.9404 20.3714 16.3653 20.4352 15.5017C20.4995 14.6306 20.5 13.5264 20.5 12C20.5 10.4736 20.4995 9.36945 20.4352 8.49829C20.3714 7.63466 20.2479 7.05961 20.032 6.58329C19.5064 5.42313 18.5769 4.49363 17.4167 3.96796C16.9404 3.75215 16.3653 3.6286 15.5017 3.56482C14.6306 3.50048 13.5264 3.5 12 3.5C10.4736 3.5 9.36945 3.50048 8.49829 3.56482ZM14.1523 8.11373C14.6862 8.68459 14.8926 9.48846 14.5911 10.3772C14.3149 11.1914 13.7558 11.7478 13.3433 12.1583C13.2572 12.2441 13.1774 12.3235 13.1079 12.3975C12.8862 12.6338 12.7157 12.8523 12.5949 13.1114C12.4766 13.3651 12.3897 13.6935 12.3897 14.1623C12.3897 14.5765 12.0539 14.9123 11.6397 14.9123C11.2255 14.9123 10.8897 14.5765 10.8897 14.1623C10.8897 13.4943 11.0165 12.947 11.2354 12.4776C11.4517 12.0135 11.7417 11.6614 12.0139 11.3713C12.144 11.2326 12.2636 11.1115 12.3732 11.0005C12.7568 10.612 13.0168 10.3487 13.1706 9.89532C13.2982 9.51925 13.2051 9.29696 13.0568 9.13843C12.8735 8.94241 12.5354 8.78321 12.1269 8.75447C11.7219 8.72597 11.3564 8.83341 11.1213 9.0286C10.9149 9.19998 10.7296 9.50227 10.7768 10.0747C10.8108 10.4875 10.5037 10.8497 10.0909 10.8837C9.67805 10.9177 9.31582 10.6106 9.28182 10.1978C9.19921 9.19511 9.53777 8.39364 10.1632 7.87444C10.76 7.37904 11.5345 7.20908 12.2322 7.25817C12.9263 7.30701 13.6533 7.58038 14.1523 8.11373ZM11.6872 15.2131C12.1014 15.2131 12.4372 15.5489 12.4372 15.9631V16C12.4372 16.4142 12.1014 16.75 11.6872 16.75C11.273 16.75 10.9372 16.4142 10.9372 16V15.9631C10.9372 15.5489 11.273 15.2131 11.6872 15.2131Z" fill="black"/>
</svg>
