<svg width="24" height="24" viewBox="0 0 24 24" fill="none" xmlns="http://www.w3.org/2000/svg">
<path fill-rule="evenodd" clip-rule="evenodd" d="M8.29133 1.99997C8.31877 1.99998 8.34659 2 8.3748 2H15.6246C15.6528 2 15.6806 1.99998 15.7081 1.99997C16.1555 1.99972 16.5009 1.99952 16.8041 2.0685C17.8356 2.30312 18.641 3.10858 18.8757 4.14004C18.8913 4.20875 18.9034 4.27962 18.9127 4.35336C19.3441 4.35695 19.7112 4.36753 20.0154 4.39867C20.4718 4.44541 20.9382 4.54936 21.3054 4.8777C21.6572 5.19219 21.8868 5.62273 21.9377 6.09651C21.9936 6.61658 21.7493 7.07078 21.5006 7.43777C21.2466 7.81258 20.8684 8.26101 20.4161 8.79743L17.9039 11.7764C16.8036 13.5487 14.9275 14.7891 12.75 15.023V16.9983H14.0079C14.4411 16.9983 14.8027 16.9983 15.0998 17.0181C15.409 17.0386 15.7013 17.083 15.9854 17.1974C16.6794 17.4769 17.2296 18.0271 17.5091 18.7211C17.5815 18.9011 17.6182 19.1059 17.6408 19.2799C17.665 19.4659 17.6798 19.6738 17.6893 19.8862C17.698 20.0803 17.7027 20.2883 17.7052 20.5H17.9497C18.364 20.5 18.6998 20.8358 18.6998 21.25C18.6998 21.6642 18.364 22 17.9497 22H6.05025C5.63604 22 5.30025 21.6642 5.30025 21.25C5.30025 20.8358 5.63604 20.5 6.05025 20.5H6.29482C6.29734 20.2883 6.30203 20.0803 6.31073 19.8862C6.32025 19.6738 6.33504 19.4659 6.35921 19.2799C6.38182 19.1059 6.41846 18.9011 6.49095 18.7211C6.77043 18.0271 7.32061 17.4769 8.01462 17.1974C8.29874 17.083 8.59099 17.0386 8.90018 17.0181C9.19726 16.9983 9.55892 16.9983 9.99214 16.9983H11.25V15.023C9.07167 14.789 7.19477 13.5479 6.09445 11.7744L3.58394 8.79741C3.13156 8.261 2.75338 7.81257 2.4994 7.43777C2.25071 7.07078 2.00638 6.61659 2.06226 6.09651C2.11316 5.62272 2.34281 5.19219 2.69458 4.8777C3.06177 4.54942 3.52791 4.44542 3.98431 4.39867C4.28835 4.36752 4.65538 4.35694 5.08671 4.35334C5.09604 4.27961 5.10812 4.20875 5.12375 4.14004C5.35837 3.10858 6.16383 2.30312 7.19529 2.0685C7.49853 1.99952 7.84392 1.99972 8.29133 1.99997ZM5.05525 5.85379C4.66674 5.85744 4.37163 5.86684 4.13717 5.89086C3.76932 5.92854 3.69927 5.99151 3.69444 5.99586C3.61084 6.07059 3.56647 6.16082 3.55483 6.24723C3.55817 6.26345 3.58134 6.36049 3.74114 6.59631C3.9453 6.89757 4.27099 7.28535 4.75853 7.8635L5.05592 8.21615C5.05548 8.18366 5.05525 8.15112 5.05525 8.11853V5.85379ZM7.79492 20.5H16.2051C16.2027 20.3077 16.1984 20.1236 16.1908 19.9534C16.1822 19.7621 16.1699 19.6006 16.1533 19.4732C16.1357 19.3375 16.1185 19.284 16.1177 19.2815C15.9906 18.966 15.7405 18.7158 15.4251 18.5888C15.3497 18.5584 15.2351 18.5304 15.0002 18.5148C14.7589 18.4987 14.4474 18.4983 13.9833 18.4983H10.0168C9.5526 18.4983 9.24111 18.4987 8.99976 18.5148C8.76492 18.5304 8.65034 18.5584 8.57494 18.5888C8.25948 18.7158 8.0094 18.9659 7.88236 19.2814C7.88155 19.2839 7.86433 19.3375 7.84671 19.4732C7.83015 19.6006 7.8178 19.7621 7.80922 19.9534C7.80159 20.1236 7.79732 20.3077 7.79492 20.5ZM18.9435 8.21686L19.2415 7.8635C19.729 7.28535 20.0547 6.89757 20.2589 6.59631C20.4187 6.36049 20.4418 6.26345 20.4452 6.24723C20.4335 6.16082 20.3893 6.07069 20.3057 5.99595C20.3009 5.99167 20.2307 5.92857 19.8626 5.89087C19.628 5.86685 19.3328 5.85746 18.9442 5.8538V8.11853C18.9442 8.15136 18.9439 8.18414 18.9435 8.21686ZM8.3748 3.5C7.8043 3.5 7.64417 3.50471 7.528 3.53114C7.05915 3.63778 6.69303 4.0039 6.58639 4.47275C6.55996 4.58892 6.55525 4.74905 6.55525 5.31955V8.11853C6.55525 11.1254 8.99306 13.563 12 13.563C15.0068 13.563 17.4442 11.1255 17.4442 8.11853V5.31955C17.4442 4.74905 17.4395 4.58892 17.413 4.47275C17.3064 4.0039 16.9403 3.63778 16.4714 3.53114C16.3552 3.50471 16.1951 3.5 15.6246 3.5H8.3748ZM11.4492 4.60267C11.7961 4.43277 12.202 4.43277 12.5489 4.60267C12.8424 4.74641 13.005 5.00139 13.0954 5.1585C13.1903 5.32344 13.2893 5.53798 13.394 5.76504L13.4065 5.79229L13.6211 6.25741C13.6252 6.26641 13.6291 6.27485 13.6328 6.28282C13.6415 6.28386 13.6508 6.28496 13.6606 6.28612L14.1991 6.34996C14.4474 6.37937 14.682 6.40717 14.8682 6.44649C15.0455 6.48394 15.3383 6.5598 15.5657 6.7945C15.8344 7.07189 15.9599 7.45795 15.9055 7.84034C15.8595 8.16388 15.6672 8.39732 15.5458 8.53187C15.4182 8.67314 15.2448 8.83352 15.0612 9.00326L14.6631 9.3714C14.6558 9.37813 14.649 9.38445 14.6425 9.39041C14.6442 9.39902 14.646 9.40814 14.648 9.41786L14.7536 9.94967C14.8024 10.1949 14.8485 10.4266 14.8686 10.6159C14.8878 10.7961 14.9061 11.098 14.7532 11.3868C14.5724 11.7281 14.244 11.9667 13.8635 12.0332C13.5416 12.0894 13.2602 11.9787 13.0947 11.9047C12.9209 11.8271 12.7148 11.7117 12.4966 11.5895L12.0235 11.3247C12.0148 11.3198 12.0067 11.3153 11.9991 11.311C11.9914 11.3153 11.9833 11.3198 11.9746 11.3247L11.5015 11.5895C11.2833 11.7117 11.0772 11.8271 10.9034 11.9047C10.7379 11.9787 10.4565 12.0894 10.1346 12.0332C9.75409 11.9667 9.42569 11.7281 9.24493 11.3868C9.09199 11.098 9.1103 10.7961 9.12949 10.6159C9.14964 10.4266 9.1957 10.1949 9.24446 9.9497L9.35014 9.41786C9.35207 9.40814 9.35388 9.39902 9.35558 9.39041C9.34914 9.38445 9.34232 9.37813 9.33504 9.3714L8.95898 9.02363C8.95162 9.01683 8.94428 9.01004 8.93695 9.00326C8.75336 8.83352 8.57989 8.67314 8.45236 8.53187C8.33088 8.39732 8.13863 8.16388 8.09261 7.84034C8.03822 7.45795 8.16366 7.07189 8.43243 6.7945C8.65983 6.5598 8.95258 6.48394 9.12994 6.44649C9.31615 6.40716 9.55076 6.37937 9.79906 6.34996L10.3375 6.28612C10.3474 6.28496 10.3566 6.28386 10.3653 6.28282C10.369 6.27485 10.3729 6.26641 10.377 6.25741L10.6041 5.76505C10.7088 5.53799 10.8078 5.32345 10.9027 5.1585C10.9931 5.00139 11.1557 4.74641 11.4492 4.60267ZM11.9991 6.32226C11.9847 6.35317 11.9696 6.38589 11.9537 6.42056L11.7391 6.88568C11.7347 6.8953 11.7299 6.90577 11.7248 6.91699C11.675 7.0269 11.5927 7.20812 11.4582 7.35595C11.3433 7.48219 11.2038 7.58357 11.0482 7.65382C10.866 7.73609 10.6683 7.75831 10.5483 7.77178C10.5361 7.77316 10.5246 7.77444 10.5141 7.77569L10.0055 7.836C9.96755 7.84049 9.93177 7.84475 9.89796 7.8488C9.92293 7.87196 9.94938 7.89644 9.97741 7.92236L10.3535 8.27013C10.3612 8.27732 10.3697 8.28508 10.3788 8.29338C10.468 8.37479 10.6149 8.509 10.7139 8.68264C10.7985 8.83092 10.8518 8.99494 10.8705 9.1646C10.8925 9.36329 10.8525 9.55823 10.8282 9.67648C10.8257 9.68854 10.8234 9.6998 10.8214 9.71019L10.7215 10.2126C10.7141 10.25 10.7071 10.2854 10.7005 10.3188C10.7302 10.3022 10.7617 10.2846 10.795 10.266L11.242 10.0158C11.2512 10.0106 11.2612 10.0049 11.2719 9.99884C11.3769 9.93924 11.5499 9.84097 11.7457 9.80045C11.9128 9.76584 12.0853 9.76584 12.2524 9.80045C12.4482 9.84097 12.6212 9.93924 12.7262 9.99884C12.7369 10.0049 12.7469 10.0106 12.7561 10.0158L13.2031 10.266C13.2364 10.2846 13.2679 10.3022 13.2976 10.3188C13.291 10.2854 13.284 10.25 13.2766 10.2126L13.1767 9.71019C13.1747 9.6998 13.1724 9.68854 13.1699 9.67648C13.1456 9.55823 13.1056 9.36329 13.1276 9.1646C13.1463 8.99494 13.1996 8.83091 13.2842 8.68264C13.3832 8.509 13.5302 8.37479 13.6193 8.29338C13.6284 8.28507 13.6369 8.27732 13.6446 8.27013L14.0207 7.92236C14.0487 7.89644 14.0752 7.87196 14.1002 7.8488C14.0663 7.84475 14.0306 7.84049 13.9926 7.836L13.484 7.77569C13.4735 7.77444 13.462 7.77316 13.4498 7.77178C13.3299 7.75831 13.1321 7.73609 12.9499 7.65382C12.7944 7.58357 12.6548 7.48219 12.5399 7.35595C12.4054 7.20812 12.3232 7.0269 12.2733 6.91699C12.2682 6.90577 12.2634 6.8953 12.259 6.88568M12.259 6.88568L12.0445 6.42056C12.0285 6.38589 12.0134 6.35317 11.9991 6.32226" fill="black"/>
</svg>
