<svg width="24" height="24" viewBox="0 0 24 24" fill="none" xmlns="http://www.w3.org/2000/svg">
<path fill-rule="evenodd" clip-rule="evenodd" d="M18.0243 3.64157C17.5879 3.50849 17.0263 3.50027 15.5691 3.50027C14.3157 3.50027 13.8347 3.50672 13.4406 3.61366C12.5095 3.86628 11.7387 4.51951 11.3369 5.39659C11.1668 5.76789 11.0816 6.24129 10.8761 7.47774L10.7163 8.43959C10.6484 8.8482 10.2621 9.12439 9.85348 9.05649C9.44487 8.98859 9.16867 8.6023 9.23657 8.19369L9.3964 7.23184C9.40312 7.1914 9.40975 7.15149 9.41629 7.1121C9.59482 6.0364 9.70899 5.34853 9.97321 4.77182C10.5605 3.48993 11.687 2.53521 13.0478 2.166C13.66 1.99989 14.3573 2.00003 15.4477 2.00025C15.4876 2.00026 15.5281 2.00027 15.5691 2.00027C15.6176 2.00027 15.6655 2.00026 15.7128 2.00025C16.9771 1.99996 17.7829 1.99978 18.4618 2.20679C19.9746 2.66807 21.1586 3.85206 21.6199 5.36487C21.8269 6.04375 21.8267 6.84961 21.8264 8.11388C21.8264 8.16114 21.8264 8.20904 21.8264 8.2576L21.8264 15.7429C21.8264 15.7915 21.8264 15.8394 21.8264 15.8867C21.8267 17.1509 21.8269 17.9568 21.6199 18.6357C21.1586 20.1485 19.9746 21.3325 18.4618 21.7937C17.7829 22.0007 16.9771 22.0006 15.7128 22.0003C15.6656 22.0003 15.6176 22.0003 15.5691 22.0003C15.5281 22.0003 15.4876 22.0003 15.4477 22.0003C14.3573 22.0005 13.66 22.0006 13.0478 21.8345C11.687 21.4653 10.5605 20.5106 9.97321 19.2287C9.70899 18.652 9.59482 17.9641 9.41629 16.8884C9.40975 16.8491 9.40313 16.8091 9.3964 16.7687L9.23657 15.8068C9.16867 15.3982 9.44487 15.0119 9.85348 14.944C10.2621 14.8761 10.6484 15.1523 10.7163 15.5609L10.8761 16.5228C11.0816 17.7592 11.1668 18.2326 11.3369 18.6039C11.7387 19.481 12.5095 20.1343 13.4406 20.3869C13.8347 20.4938 14.3157 20.5003 15.5691 20.5003C17.0263 20.5003 17.5879 20.492 18.0243 20.359C19.0594 20.0433 19.8695 19.2332 20.1851 18.1982C20.3182 17.7617 20.3264 17.2002 20.3264 15.7429L20.3264 8.2576C20.3264 6.80034 20.3182 6.23883 20.1851 5.80236C19.8695 4.76729 19.0594 3.95719 18.0243 3.64157ZM6.91623 7.29985C7.23514 7.56418 7.27938 8.03699 7.01505 8.3559L4.51903 11.3672L17.7232 11.3672C18.1375 11.3672 18.4732 11.703 18.4732 12.1172C18.4732 12.5315 18.1375 12.8672 17.7232 12.8672L4.51923 12.8672L7.01505 15.8784C7.27938 16.1973 7.23514 16.6701 6.91623 16.9344C6.59732 17.1987 6.12452 17.1545 5.86018 16.8356L2.34591 12.5957C2.11582 12.3181 2.11582 11.9161 2.34591 11.6385L5.86019 7.39866C6.12452 7.07976 6.59733 7.03552 6.91623 7.29985Z" fill="black"/>
</svg>
