<svg width="24" height="24" viewBox="0 0 24 24" fill="none" xmlns="http://www.w3.org/2000/svg">
<path fill-rule="evenodd" clip-rule="evenodd" d="M11.4282 2.05895C11.8052 1.97882 12.1948 1.97882 12.5717 2.05895C13.0005 2.15008 13.3907 2.3758 13.8874 2.66305C13.9162 2.67973 13.9454 2.69662 13.975 2.7137L19.0547 5.64645C19.0843 5.66353 19.1135 5.68037 19.1423 5.69701C19.6394 5.98349 20.03 6.20859 20.3233 6.53432C20.5812 6.82071 20.776 7.15811 20.8951 7.52463C21.0305 7.94148 21.0302 8.39231 21.0297 8.96604C21.0297 8.99935 21.0297 9.03309 21.0297 9.06725V14.9328C21.0297 14.9669 21.0297 15.0006 21.0297 15.034C21.0302 15.6077 21.0305 16.0585 20.8951 16.4754C20.776 16.8419 20.5812 17.1793 20.3233 17.4657C20.03 17.7914 19.6394 18.0165 19.1424 18.303C19.1135 18.3196 19.0843 18.3365 19.0547 18.3536L13.975 21.2863C13.9454 21.3034 13.9162 21.3203 13.8874 21.337C13.3907 21.6242 13.0005 21.8499 12.5717 21.9411C12.1948 22.0212 11.8052 22.0212 11.4282 21.9411C10.9995 21.8499 10.6093 21.6242 10.1126 21.337C10.0838 21.3203 10.0546 21.3034 10.025 21.2863L4.94532 18.3536C4.91573 18.3365 4.88651 18.3196 4.85765 18.303C4.36056 18.0165 3.96995 17.7914 3.67667 17.4657C3.4188 17.1793 3.224 16.8419 3.10491 16.4754C2.96947 16.0585 2.96982 15.6077 2.97027 15.034C2.97029 15.0006 2.97032 14.9669 2.97032 14.9328V9.06725C2.97032 9.03309 2.97029 8.99936 2.97027 8.96604C2.96982 8.39231 2.96947 7.94149 3.10491 7.52463C3.224 7.15811 3.4188 6.82071 3.67667 6.53432C3.96995 6.20859 4.36055 5.98349 4.85764 5.69701C4.88651 5.68037 4.91573 5.66353 4.94532 5.64645L10.025 2.7137C10.0546 2.69661 10.0838 2.67973 10.1126 2.66305C10.6093 2.37579 10.9995 2.15008 11.4282 2.05895ZM12.2599 3.52617C12.0885 3.48975 11.9114 3.48975 11.7401 3.52617C11.574 3.56147 11.4017 3.65091 10.775 4.01273L5.69532 6.94549C5.53057 7.0406 5.39783 7.11794 5.28958 7.18256L11.9882 11.1229L18.4953 7.05598C18.437 7.02202 18.3736 6.98531 18.3047 6.94549L13.225 4.01273C12.5983 3.65091 12.426 3.56147 12.2599 3.52617ZM19.509 8.19128L12.75 12.4157V20.2571C12.8719 20.1901 13.0254 20.1025 13.225 19.9873L18.3047 17.0545C18.9314 16.6927 19.095 16.5882 19.2086 16.462C19.3258 16.3318 19.4144 16.1784 19.4685 16.0118C19.521 15.8504 19.5297 15.6564 19.5297 14.9328V9.06725C19.5297 8.59719 19.526 8.35063 19.509 8.19128ZM11.25 20.2571V12.429L4.47602 8.44427C4.47158 8.59359 4.47032 8.79214 4.47032 9.06725V14.9328C4.47032 15.6564 4.47903 15.8504 4.5315 16.0118C4.58563 16.1784 4.67417 16.3318 4.79139 16.462C4.90499 16.5882 5.06862 16.6927 5.69532 17.0545L10.775 19.9873C10.9746 20.1025 11.1281 20.1901 11.25 20.2571Z" fill="black"/>
</svg>
