<svg width="24" height="24" viewBox="0 0 24 24" fill="none" xmlns="http://www.w3.org/2000/svg">
<path fill-rule="evenodd" clip-rule="evenodd" d="M10.0418 2H13.9578C15.0499 1.99999 15.9154 1.99999 16.6131 2.05699C17.3265 2.11527 17.9301 2.23688 18.4813 2.51772C19.375 2.97312 20.1017 3.69978 20.5571 4.59355C20.8379 5.14472 20.9595 5.74834 21.0178 6.46173C21.0748 7.15935 21.0748 8.02484 21.0748 9.11698V14.883C21.0748 15.9752 21.0748 16.8406 21.0178 17.5383C20.9595 18.2517 20.8379 18.8553 20.5571 19.4065C20.1017 20.3002 19.375 21.0269 18.4813 21.4823C17.9301 21.7631 17.3265 21.8847 16.6131 21.943C15.9155 22 15.05 22 13.9578 22H10.0418C8.94965 22 8.08416 22 7.38654 21.943C6.67315 21.8847 6.06952 21.7631 5.51835 21.4823C4.62458 21.0269 3.89792 20.3002 3.44252 19.4065C3.16169 18.8553 3.04008 18.2517 2.98179 17.5383C2.92479 16.8406 2.9248 15.9751 2.9248 14.883V9.117C2.9248 8.02486 2.92479 7.15936 2.98179 6.46173C3.04008 5.74834 3.16169 5.14472 3.44252 4.59355C3.89792 3.69978 4.62458 2.97312 5.51835 2.51772C6.06952 2.23688 6.67315 2.11527 7.38654 2.05699C8.08416 1.99999 8.94966 1.99999 10.0418 2ZM7.50869 3.55201C6.88806 3.60271 6.50381 3.69909 6.19934 3.85423C5.58781 4.16582 5.09062 4.663 4.77903 5.27453C4.6239 5.579 4.52752 5.96325 4.47681 6.58388C4.42539 7.21326 4.4248 8.01752 4.4248 9.15V14.85C4.4248 15.9825 4.42539 16.7867 4.47681 17.4161C4.52752 18.0367 4.6239 18.421 4.77903 18.7255C5.09062 19.337 5.58781 19.8342 6.19934 20.1458C6.50381 20.3009 6.88806 20.3973 7.50869 20.448C8.13807 20.4994 8.94232 20.5 10.0748 20.5H13.9248C15.0573 20.5 15.8615 20.4994 16.4909 20.448C17.1116 20.3973 17.4958 20.3009 17.8003 20.1458C18.4118 19.8342 18.909 19.337 19.2206 18.7255C19.3757 18.421 19.4721 18.0367 19.5228 17.4161C19.5742 16.7867 19.5748 15.9825 19.5748 14.85V9.15C19.5748 8.01752 19.5742 7.21326 19.5228 6.58388C19.4721 5.96325 19.3757 5.579 19.2206 5.27453C18.909 4.663 18.4118 4.16582 17.8003 3.85423C17.4958 3.69909 17.1116 3.60271 16.4909 3.55201C15.8615 3.50058 15.0573 3.5 13.9248 3.5H10.0748C8.94232 3.5 8.13807 3.50058 7.50869 3.55201ZM12.6629 8.5597C12.2363 8.39507 11.7636 8.39507 11.337 8.5597L10.1582 9.01451V9.81271C10.1582 11.0546 10.883 12.175 11.9999 12.6893C13.1169 12.175 13.8417 11.0546 13.8417 9.81271V9.01451L12.6629 8.5597ZM10.797 7.16025C11.5712 6.86156 12.4287 6.86156 13.2029 7.16025L14.6504 7.71877C15.067 7.87949 15.3417 8.27994 15.3417 8.72642V9.81271C15.3417 11.7421 14.1546 13.4726 12.3545 14.1671C12.1263 14.2551 11.8736 14.2551 11.6454 14.1671C9.84534 13.4726 8.6582 11.7421 8.6582 9.81271V8.72642C8.6582 8.27994 8.93292 7.87949 9.34946 7.71877L10.797 7.16025ZM8.6582 16.5C8.6582 16.0858 8.99399 15.75 9.4082 15.75H14.5882C15.0024 15.75 15.3382 16.0858 15.3382 16.5C15.3382 16.9142 15.0024 17.25 14.5882 17.25H9.4082C8.99399 17.25 8.6582 16.9142 8.6582 16.5Z" fill="black"/>
</svg>
