<svg width="25" height="24" viewBox="0 0 25 24" fill="none" xmlns="http://www.w3.org/2000/svg">
<path fill-rule="evenodd" clip-rule="evenodd" d="M12.7882 3.5C10.7567 3.5 9.10985 5.14686 9.10985 7.17837C9.10985 9.20987 10.7567 10.8567 12.7882 10.8567C14.8197 10.8567 16.4666 9.20987 16.4666 7.17837C16.4666 5.14686 14.8197 3.5 12.7882 3.5ZM7.60985 7.17837C7.60985 4.31843 9.92829 2 12.7882 2C15.6482 2 17.9666 4.31843 17.9666 7.17837C17.9666 10.0383 15.6482 12.3567 12.7882 12.3567C9.92829 12.3567 7.60985 10.0383 7.60985 7.17837ZM12.5725 15.7351C8.71028 15.7351 5.40637 18.1333 4.07215 21.5245C3.9205 21.91 3.48509 22.0995 3.09964 21.9479C2.71418 21.7962 2.52465 21.3608 2.6763 20.9754C4.22858 17.0299 8.07324 14.2351 12.5725 14.2351C17.0717 14.2351 20.9164 17.0299 22.4687 20.9754C22.6203 21.3608 22.4308 21.7962 22.0453 21.9479C21.6599 22.0995 21.2245 21.91 21.0728 21.5245C19.7386 18.1333 16.4347 15.7351 12.5725 15.7351Z" fill="black"/>
</svg>
