<svg width="24" height="24" viewBox="0 0 24 24" fill="none" xmlns="http://www.w3.org/2000/svg">
<path fill-rule="evenodd" clip-rule="evenodd" d="M15.6948 2.21323C15.9093 2.42255 15.9786 2.7395 15.871 3.01925L14.1527 7.4868L18.5203 16.4267C19.3474 16.64 20.067 16.9026 20.6124 17.2163C21.1745 17.5397 21.8084 18.0695 21.8084 18.8611C21.8084 19.6002 21.2529 20.1097 20.7435 20.4274C20.1945 20.7697 19.4501 21.0505 18.5968 21.2755C16.8791 21.7286 14.5474 22 12.0009 22C9.45439 22 7.12269 21.7286 5.40498 21.2755C4.55166 21.0505 3.80722 20.7697 3.2583 20.4274C2.74891 20.1097 2.19336 19.6002 2.19336 18.8611C2.19336 18.1143 2.76002 17.6018 3.27689 17.2833C3.74077 16.9975 4.3422 16.7544 5.03075 16.5511C5.46854 14.3661 6.31909 11.5942 7.73034 9.00837C9.30232 6.12808 11.609 3.40981 14.8847 2.05682C15.1617 1.9424 15.4803 2.0039 15.6948 2.21323ZM4.97342 18.1457C4.59374 18.2807 4.28963 18.4212 4.06376 18.5603C3.81793 18.7118 3.73306 18.8166 3.7049 18.8611C3.73273 18.9051 3.81549 19.0071 4.05199 19.1546C4.41974 19.3839 5.00174 19.6179 5.78752 19.8251C7.34799 20.2367 9.54505 20.5 12.0009 20.5C14.4567 20.5 16.6538 20.2367 18.2142 19.8251C19 19.6179 19.582 19.3839 19.9498 19.1546C20.1858 19.0074 20.2687 18.9055 20.2967 18.8614C20.2665 18.8136 20.169 18.6917 19.8645 18.5166C19.5913 18.3595 19.2229 18.2035 18.7651 18.057C18.5399 18.7344 17.9077 19.2601 17.1019 19.2601H6.59582C5.86191 19.2601 5.2163 18.8005 4.97342 18.1457ZM12.5182 7.55817L12.2066 8.36818C12.0579 8.75478 12.2508 9.18873 12.6374 9.33742C12.8818 9.43142 13.1451 9.38892 13.3434 9.24724L15.6438 13.956H13.8147C13.4956 12.9326 12.5406 12.1897 11.4121 12.1897C10.2837 12.1897 9.32872 12.9326 9.0096 13.956H7.25507C7.69756 12.5768 8.28686 11.1198 9.04701 9.72697C10.2138 7.58904 11.7589 5.64525 13.7547 4.34308L13.1432 5.93305C12.9635 5.87328 12.7611 5.88115 12.5774 5.97088C12.2052 6.1527 12.0509 6.60181 12.2328 6.97398L12.5182 7.55817ZM6.82086 15.456C6.62856 16.1997 6.48127 16.9007 6.37451 17.5326C6.36464 17.5911 6.38048 17.6413 6.41753 17.6833C6.45648 17.7275 6.51811 17.7601 6.59582 17.7601H17.1019C17.2868 17.7601 17.4077 17.5665 17.3266 17.4004L16.3724 15.4473C16.3351 15.453 16.2968 15.456 16.2579 15.456H13.8147C13.4956 16.4793 12.5406 17.2222 11.4121 17.2222C10.2837 17.2222 9.32872 16.4793 9.0096 15.456H6.82086ZM11.4121 13.6897C10.8509 13.6897 10.3959 14.1447 10.3959 14.706C10.3959 15.2672 10.8509 15.7222 11.4121 15.7222C11.9734 15.7222 12.4284 15.2672 12.4284 14.706C12.4284 14.1447 11.9734 13.6897 11.4121 13.6897Z" fill="black"/>
</svg>
