<svg width="25" height="24" viewBox="0 0 25 24" fill="none" xmlns="http://www.w3.org/2000/svg">
<path fill-rule="evenodd" clip-rule="evenodd" d="M16.6295 6.89874C15.7152 6.89874 14.974 7.63991 14.974 8.55418C14.974 9.46845 15.7152 10.2096 16.6295 10.2096C17.5437 10.2096 18.2849 9.46845 18.2849 8.55418C18.2849 7.63991 17.5437 6.89874 16.6295 6.89874ZM13.474 8.55418C13.474 6.81148 14.8868 5.39874 16.6295 5.39874C18.3722 5.39874 19.7849 6.81148 19.7849 8.55418C19.7849 10.2969 18.3722 11.7096 16.6295 11.7096C14.8868 11.7096 13.474 10.2969 13.474 8.55418ZM8.51485 6.89876C7.60058 6.89876 6.85941 7.63993 6.85941 8.5542C6.85941 9.46847 7.60058 10.2096 8.51485 10.2096C9.42912 10.2096 10.1703 9.46847 10.1703 8.5542C10.1703 7.63993 9.42912 6.89876 8.51485 6.89876ZM5.35941 8.5542C5.35941 6.8115 6.77215 5.39876 8.51485 5.39876C10.2575 5.39876 11.6703 6.8115 11.6703 8.5542C11.6703 10.2969 10.2575 11.7096 8.51485 11.7096C6.77215 11.7096 5.35941 10.2969 5.35941 8.5542ZM15.6282 12.0891H18.4809C20.7405 12.0891 22.5723 13.9209 22.5723 16.1805C22.5723 17.5174 21.4885 18.6012 20.1516 18.6012L4.99294 18.6012C3.65604 18.6012 2.57227 17.5174 2.57227 16.1805C2.57227 13.9209 4.40403 12.0892 6.66362 12.0892H9.51634C9.99811 12.0892 10.4003 12.0892 10.7298 12.1135C11.0731 12.1388 11.3966 12.1936 11.7072 12.3343C12.0356 12.4831 12.3287 12.6937 12.5722 12.9517C12.8158 12.6937 13.1089 12.4831 13.4373 12.3343C13.7479 12.1935 14.0714 12.1388 14.4147 12.1135C14.7442 12.0891 15.1464 12.0891 15.6282 12.0891ZM13.3223 15.9225C13.3223 15.4063 13.3227 15.0598 13.3425 14.7921C13.3617 14.5319 13.3961 14.4061 13.4337 14.3233C13.5588 14.047 13.7801 13.8257 14.0564 13.7006C14.1392 13.663 14.265 13.6286 14.5252 13.6094C14.7929 13.5896 15.1393 13.5891 15.6556 13.5891H18.4809C19.9121 13.5891 21.0723 14.7493 21.0723 16.1805C21.0723 16.689 20.66 17.1012 20.1516 17.1012L13.3223 17.1012V15.9225ZM11.8223 17.1012V15.9225C11.8223 15.4063 11.8218 15.0598 11.802 14.7921C11.7828 14.5319 11.7484 14.4062 11.7108 14.3233C11.5857 14.0471 11.3644 13.8257 11.0881 13.7006C11.0053 13.663 10.8795 13.6286 10.6193 13.6094C10.3516 13.5896 10.0052 13.5892 9.48892 13.5892H6.66362C5.23246 13.5892 4.07227 14.7494 4.07227 16.1805C4.07227 16.689 4.48447 17.1012 4.99294 17.1012H11.8223Z" fill="black"/>
</svg>
