<svg width="25" height="24" viewBox="0 0 25 24" fill="none" xmlns="http://www.w3.org/2000/svg">
<path fill-rule="evenodd" clip-rule="evenodd" d="M9.38769 4.50092C9.176 4.43428 8.95038 4.4252 8.73402 4.47462C8.59169 4.50713 8.43812 4.58275 7.8871 4.88181C7.6032 5.04798 7.52562 5.09569 7.46506 5.14424C7.19906 5.35752 7.03171 5.67019 7.0018 6.00982C6.99491 6.08807 6.99841 6.18036 7.01824 6.51855L7.03106 6.73715C7.03278 6.76644 7.03449 6.79535 7.03618 6.82389C7.065 7.30979 7.08754 7.68993 7.01387 8.04707C6.89166 8.63951 6.57752 9.17513 6.1201 9.57098C5.84436 9.8096 5.50158 9.97548 5.06344 10.1875C5.0377 10.2 5.01163 10.2126 4.98523 10.2254L4.80818 10.3112C4.44174 10.4888 4.34313 10.5397 4.26688 10.5949C4.00425 10.7851 3.8258 11.0699 3.76921 11.3892C3.75278 11.4819 3.75003 11.5928 3.75003 12C3.75003 12.4072 3.75278 12.5181 3.76921 12.6108C3.8258 12.9301 4.00425 13.2149 4.26688 13.4051C4.34313 13.4603 4.44174 13.5112 4.80818 13.6888L5.00528 13.7844C5.03039 13.7965 5.05517 13.8085 5.07964 13.8204C5.496 14.0219 5.82158 14.1794 6.08627 14.4025C6.57134 14.8112 6.90021 15.375 7.01715 15.9985C7.08097 16.3387 7.05783 16.6996 7.02824 17.1612C7.0265 17.1884 7.02474 17.2158 7.02297 17.2437L7.01842 17.3153C6.98839 17.7883 6.98394 17.9172 6.99929 18.0257C7.04143 18.3234 7.1895 18.596 7.41636 18.7934C7.49901 18.8654 7.60952 18.9318 8.02263 19.164C8.41997 19.3874 8.52954 19.445 8.63035 19.4779C8.90677 19.5679 9.20592 19.5588 9.47634 19.4521C9.57496 19.4132 9.68082 19.349 10.0638 19.1018L10.205 19.0106C10.232 18.9932 10.2587 18.9759 10.2851 18.9589C10.7349 18.668 11.0874 18.4402 11.4746 18.3273C11.9816 18.1794 12.5204 18.1807 13.0267 18.3309C13.4133 18.4456 13.7647 18.6751 14.2132 18.968C14.2395 18.9851 14.2661 19.0025 14.2931 19.0201L14.357 19.0617C14.8233 19.3658 14.9523 19.4437 15.0748 19.4866C15.3097 19.5688 15.5638 19.579 15.8045 19.516C15.9292 19.4833 16.063 19.4167 16.5441 19.1556C16.8976 18.9494 16.9934 18.8901 17.0665 18.8275C17.3032 18.6245 17.4556 18.3403 17.4936 18.0308C17.5055 17.9344 17.5017 17.8206 17.4772 17.4027L17.4689 17.2613C17.4672 17.2321 17.4655 17.2032 17.4638 17.1748C17.4351 16.6902 17.4126 16.3111 17.4858 15.9549C17.6079 15.361 17.9227 14.8242 18.3814 14.4278C18.6566 14.19 18.9984 14.0246 19.4354 13.8131C19.4611 13.8007 19.4871 13.7881 19.5134 13.7753L19.6919 13.6888C20.0583 13.5112 20.1569 13.4603 20.2332 13.4051C20.4958 13.2149 20.6743 12.9301 20.7309 12.6108C20.7473 12.5181 20.75 12.4072 20.75 12C20.75 11.5928 20.7473 11.4819 20.7309 11.3892C20.6743 11.0699 20.4958 10.7851 20.2332 10.5949C20.1569 10.5397 20.0583 10.4888 19.6919 10.3112L19.4948 10.2157C19.4697 10.2035 19.4449 10.1915 19.4204 10.1796C19.0041 9.97815 18.6785 9.82058 18.4138 9.59755C17.9287 9.18884 17.5999 8.62499 17.4829 8.00155C17.4191 7.66137 17.4422 7.3004 17.4718 6.8388C17.4736 6.81167 17.4753 6.7842 17.4771 6.75636L17.4816 6.68469C17.5117 6.21171 17.5161 6.08286 17.5008 5.97437C17.4586 5.67661 17.3106 5.40401 17.0837 5.20658C17.0011 5.13465 16.8905 5.06826 16.4774 4.836C16.0801 4.6126 15.9705 4.55498 15.8697 4.52214C15.5933 4.43211 15.2941 4.44123 15.0237 4.54795C14.9251 4.58687 14.8192 4.65107 14.4363 4.89827L14.2951 4.98939C14.268 5.00685 14.2413 5.02411 14.215 5.04115C13.7651 5.33198 13.4127 5.55983 13.0255 5.67275C12.5185 5.82061 11.9797 5.81936 11.4734 5.66916C11.0867 5.55445 10.7345 5.32439 10.2846 5.03061C10.2582 5.01337 10.2315 4.9959 10.2044 4.97823C9.67457 4.63278 9.52793 4.54507 9.38769 4.50092ZM8.40001 3.01228C8.87601 2.90356 9.37237 2.92353 9.8381 3.07014C10.2005 3.18421 10.5295 3.39909 10.9493 3.67318C10.9737 3.68916 10.9985 3.70535 11.0236 3.72173C11.5925 4.09265 11.7506 4.18677 11.9 4.23111C12.1302 4.29938 12.3751 4.29995 12.6055 4.23274C12.7552 4.18908 12.913 4.09615 13.4816 3.72912L13.6228 3.63799C13.641 3.62626 13.6589 3.61468 13.6766 3.60324C13.9805 3.40689 14.2183 3.25321 14.4731 3.15267C15.068 2.91789 15.7262 2.89782 16.3343 3.09589C16.5947 3.18072 16.8415 3.31961 17.1567 3.49707C17.1751 3.50741 17.1937 3.51788 17.2126 3.52848C17.2322 3.53953 17.2516 3.55042 17.2708 3.56117C17.5985 3.7452 17.8548 3.88914 18.0684 4.07507C18.5675 4.50941 18.8933 5.10912 18.986 5.76421C19.0257 6.04464 19.0069 6.33801 18.9829 6.71306C18.9815 6.73499 18.9801 6.7572 18.9786 6.7797L18.9741 6.85137C18.9371 7.43461 18.9325 7.59354 18.9572 7.72501C19.0104 8.00839 19.1598 8.26468 19.3803 8.45046C19.4826 8.53665 19.6232 8.61096 20.1491 8.86587L20.3462 8.96141C20.3636 8.96986 20.3808 8.97819 20.3978 8.98642C20.6886 9.1272 20.9159 9.23727 21.113 9.38C21.6908 9.79841 22.0833 10.425 22.2078 11.1274C22.2503 11.367 22.2502 11.6196 22.25 11.9426C22.25 11.9615 22.25 11.9806 22.25 12C22.25 12.0194 22.25 12.0385 22.25 12.0574C22.2502 12.3804 22.2503 12.633 22.2078 12.8726C22.0833 13.575 21.6908 14.2016 21.113 14.62C20.9159 14.7628 20.6886 14.8728 20.3978 15.0136C20.3808 15.0218 20.3636 15.0302 20.3462 15.0386L20.1677 15.1251C19.6157 15.3927 19.4685 15.4708 19.3622 15.5627C19.1537 15.7429 19.0106 15.9869 18.9551 16.2569C18.9268 16.3945 18.9304 16.5611 18.9663 17.1735L18.9746 17.3149C18.9758 17.3348 18.977 17.3544 18.9781 17.3737C18.9977 17.7053 19.013 17.9647 18.9824 18.2136C18.8988 18.8947 18.5636 19.5198 18.0426 19.9664C17.8522 20.1296 17.6277 20.2604 17.3407 20.4275C17.3239 20.4373 17.307 20.4472 17.2898 20.4572C17.2832 20.461 17.2765 20.4648 17.2699 20.4684C17.2467 20.481 17.2238 20.4934 17.2012 20.5057C16.8131 20.7167 16.509 20.882 16.1847 20.967C15.655 21.1058 15.0961 21.0833 14.5793 20.9024C14.2628 20.7917 13.973 20.6024 13.6031 20.3609C13.5816 20.3469 13.5598 20.3326 13.5377 20.3182L13.4738 20.2766C12.9069 19.9069 12.7495 19.8133 12.6 19.7689C12.3699 19.7006 12.125 19.7001 11.8945 19.7673C11.7448 19.8109 11.5871 19.9039 11.0184 20.2709L10.8773 20.362C10.8591 20.3738 10.8412 20.3853 10.8235 20.3968C10.5196 20.5931 10.2817 20.7468 10.027 20.8474C9.43206 21.0821 8.77392 21.1022 8.1658 20.9041C7.90537 20.8193 7.65862 20.6804 7.34337 20.503C7.32499 20.4926 7.30637 20.4822 7.28751 20.4715C7.26787 20.4605 7.24847 20.4496 7.22932 20.4389C6.90161 20.2548 6.64529 20.1109 6.43164 19.925C5.93255 19.4906 5.60679 18.8909 5.51409 18.2358C5.47441 17.9554 5.49318 17.662 5.51718 17.2869C5.51858 17.265 5.52 17.2428 5.52143 17.2203L5.52598 17.1486C5.56301 16.5654 5.56753 16.4065 5.54287 16.275C5.48971 15.9916 5.34022 15.7353 5.11974 15.5496C5.01745 15.4634 4.87689 15.3891 4.351 15.1342L4.1539 15.0386C4.13646 15.0302 4.11925 15.0218 4.10226 15.0136C3.8115 14.8728 3.58418 14.7628 3.38709 14.62C2.8093 14.2016 2.41672 13.575 2.29223 12.8726C2.24976 12.633 2.24987 12.3804 2.25002 12.0574C2.25002 12.0385 2.25003 12.0194 2.25003 12C2.25003 11.9806 2.25002 11.9615 2.25002 11.9426C2.24987 11.6196 2.24976 11.367 2.29223 11.1274C2.41672 10.425 2.8093 9.79841 3.38709 9.38C3.58418 9.23727 3.8115 9.12721 4.10227 8.98642C4.11926 8.97819 4.13646 8.96986 4.15389 8.96141L4.33095 8.87559C4.8844 8.60731 5.03197 8.52895 5.13854 8.43672C5.34646 8.25679 5.48925 8.01333 5.5448 7.74404C5.57327 7.60601 5.56964 7.43896 5.53363 6.82497L5.52081 6.60636C5.51987 6.59029 5.51893 6.57442 5.51801 6.55876C5.50216 6.29029 5.48978 6.08042 5.50759 5.87823C5.57339 5.13104 5.94155 4.44315 6.52676 3.97395C6.68511 3.84698 6.86661 3.74088 7.09878 3.60515C7.11233 3.59723 7.12605 3.58921 7.13995 3.58107C7.14686 3.57703 7.15383 3.5731 7.16086 3.56928C7.18748 3.55483 7.21375 3.54055 7.23968 3.52644C7.68268 3.28555 8.02965 3.09687 8.40001 3.01228ZM12.25 9.7823C11.0252 9.7823 10.0323 10.7752 10.0323 12C10.0323 13.2248 11.0252 14.2177 12.25 14.2177C13.4748 14.2177 14.4677 13.2248 14.4677 12C14.4677 10.7752 13.4748 9.7823 12.25 9.7823ZM8.53232 12C8.53232 9.94678 10.1968 8.2823 12.25 8.2823C14.3033 8.2823 15.9677 9.94678 15.9677 12C15.9677 14.0532 14.3033 15.7177 12.25 15.7177C10.1968 15.7177 8.53232 14.0532 8.53232 12Z" fill="black"/>
</svg>
