<svg width="24" height="24" viewBox="0 0 24 24" fill="none" xmlns="http://www.w3.org/2000/svg">
<path fill-rule="evenodd" clip-rule="evenodd" d="M12.2238 6.832C12.2238 6.00413 12.895 5.33301 13.7228 5.33301C14.5507 5.33301 15.2218 6.00413 15.2218 6.832C15.2218 7.65986 14.5507 8.33098 13.7228 8.33098C12.895 8.33098 12.2238 7.65986 12.2238 6.832ZM13.7235 6.83137V6.83262L13.7222 6.83262V6.83137H13.7235Z" fill="black"/>
<path fill-rule="evenodd" clip-rule="evenodd" d="M10.2773 5.33301C9.44944 5.33301 8.77832 6.00413 8.77832 6.832C8.77832 7.65987 9.44944 8.33099 10.2773 8.33099C11.1052 8.33099 11.7763 7.65987 11.7763 6.832C11.7763 6.00413 11.1052 5.33301 10.2773 5.33301ZM10.2767 6.83137V6.83262H10.2779L10.2779 6.83137L10.2767 6.83137Z" fill="black"/>
<path fill-rule="evenodd" clip-rule="evenodd" d="M10.2773 8.77835C9.44944 8.77835 8.77832 9.44947 8.77832 10.2773C8.77832 11.1052 9.44944 11.7763 10.2773 11.7763C11.1052 11.7763 11.7763 11.1052 11.7763 10.2773C11.7763 9.44947 11.1052 8.77835 10.2773 8.77835ZM10.2779 10.2767H10.2767V10.278H10.2779L10.2779 10.2767Z" fill="black"/>
<path fill-rule="evenodd" clip-rule="evenodd" d="M13.7228 8.77835C12.895 8.77835 12.2238 9.44947 12.2238 10.2773C12.2238 11.1052 12.895 11.7763 13.7228 11.7763C14.5507 11.7763 15.2218 11.1052 15.2218 10.2773C15.2218 9.44947 14.5507 8.77835 13.7228 8.77835ZM13.7222 10.2767V10.278H13.7235V10.2767L13.7222 10.2767Z" fill="black"/>
<path fill-rule="evenodd" clip-rule="evenodd" d="M8.77832 13.7227C8.77832 12.8948 9.44944 12.2237 10.2773 12.2237C11.1052 12.2237 11.7763 12.8948 11.7763 13.7227C11.7763 14.5505 11.1052 15.2217 10.2773 15.2217C9.44944 15.2217 8.77832 14.5505 8.77832 13.7227ZM10.2767 13.722H10.2779L10.2779 13.7233H10.2767V13.722Z" fill="black"/>
<path fill-rule="evenodd" clip-rule="evenodd" d="M10.2775 15.669C9.44965 15.669 8.77853 16.3401 8.77853 17.168C8.77853 17.9959 9.44965 18.667 10.2775 18.667C11.1054 18.667 11.7765 17.9959 11.7765 17.168C11.7765 16.3401 11.1054 15.669 10.2775 15.669ZM10.2781 17.1674H10.2769V17.1686L10.2781 17.1686L10.2781 17.1674Z" fill="black"/>
<path fill-rule="evenodd" clip-rule="evenodd" d="M12.2236 13.7227C12.2236 12.8948 12.8948 12.2237 13.7226 12.2237C14.5505 12.2237 15.2216 12.8948 15.2216 13.7227C15.2216 14.5505 14.5505 15.2217 13.7226 15.2217C12.8948 15.2217 12.2236 14.5505 12.2236 13.7227ZM13.7232 13.722V13.7233H13.722V13.722H13.7232Z" fill="black"/>
<path fill-rule="evenodd" clip-rule="evenodd" d="M13.7228 15.669C12.895 15.669 12.2238 16.3401 12.2238 17.168C12.2238 17.9959 12.895 18.667 13.7228 18.667C14.5507 18.667 15.2218 17.9959 15.2218 17.168C15.2218 16.3401 14.5507 15.669 13.7228 15.669ZM13.7235 17.1686V17.1674H13.7222V17.1686L13.7235 17.1686Z" fill="black"/>
<path fill-rule="evenodd" clip-rule="evenodd" d="M8.53675 2.24341H15.4645C15.9986 2.2434 16.4445 2.24339 16.8087 2.27315C17.1886 2.30419 17.5452 2.3713 17.8825 2.54314C18.3999 2.80679 18.8206 3.22749 19.0843 3.74494C19.2561 4.0822 19.3232 4.43885 19.3543 4.81874C19.384 5.18297 19.384 5.62881 19.384 6.16296V20.2566H21.25C21.6642 20.2566 22 20.5924 22 21.0066C22 21.4208 21.6642 21.7566 21.25 21.7566H2.75C2.33579 21.7566 2 21.4208 2 21.0066C2 20.5924 2.33579 20.2566 2.75 20.2566H4.61719L4.61719 6.16297C4.61718 5.62882 4.61717 5.18297 4.64693 4.81874C4.67797 4.43885 4.74508 4.0822 4.91692 3.74494C5.18057 3.22749 5.60127 2.80679 6.11871 2.54314C6.45598 2.3713 6.81263 2.30419 7.19252 2.27315C7.55675 2.24339 8.0026 2.2434 8.53675 2.24341ZM7.31467 3.76817C7.02754 3.79163 6.89026 3.83351 6.7997 3.87965C6.5645 3.99949 6.37327 4.19072 6.25343 4.42592C6.20729 4.51648 6.1654 4.65376 6.14195 4.94089C6.11777 5.23677 6.11719 5.62098 6.11719 6.19341V20.2566H17.884V6.19341C17.884 5.62098 17.8834 5.23677 17.8593 4.94089C17.8358 4.65376 17.7939 4.51648 17.7478 4.42592C17.6279 4.19072 17.4367 3.99949 17.2015 3.87965C17.1109 3.83351 16.9737 3.79163 16.6865 3.76817C16.3907 3.74399 16.0065 3.74341 15.434 3.74341H8.56719C7.99476 3.74341 7.61055 3.74399 7.31467 3.76817Z" fill="black"/>
</svg>
