<svg width="24" height="24" viewBox="0 0 24 24" fill="none" xmlns="http://www.w3.org/2000/svg">
<path fill-rule="evenodd" clip-rule="evenodd" d="M8.35709 2H15.6434C16.1775 1.99999 16.6234 1.99998 16.9876 2.02974C17.3675 2.06078 17.7241 2.12789 18.0614 2.29973C18.5788 2.56338 18.9995 2.98408 19.2632 3.50153C19.435 3.83879 19.5021 4.19545 19.5332 4.57533C19.5629 4.93956 19.5629 5.3854 19.5629 5.91955V20.5H20.9272C21.3414 20.5 21.6772 20.8358 21.6772 21.25C21.6772 21.6642 21.3414 22 20.9272 22H3.07324C2.65903 22 2.32324 21.6642 2.32324 21.25C2.32324 20.8358 2.65903 20.5 3.07324 20.5H4.43753L4.43753 5.91957C4.43752 5.38541 4.43751 4.93956 4.46727 4.57533C4.4983 4.19545 4.56542 3.83879 4.73726 3.50153C5.00091 2.98408 5.42161 2.56338 5.93905 2.29973C6.27632 2.12789 6.63297 2.06078 7.01286 2.02974C7.37709 1.99998 7.82294 1.99999 8.35709 2ZM5.93753 20.5H8.24981V17.1771C8.2498 16.7327 8.2498 16.3616 8.27058 16.057C8.29222 15.7399 8.33886 15.4404 8.45914 15.15C8.73825 14.4762 9.2736 13.9408 9.94743 13.6617C10.2378 13.5414 10.5373 13.4948 10.8544 13.4732C11.1591 13.4524 11.5301 13.4524 11.9746 13.4524H12.0251C12.4695 13.4524 12.8406 13.4524 13.1452 13.4732C13.4623 13.4948 13.7618 13.5414 14.0522 13.6617C14.726 13.9408 15.2614 14.4762 15.5405 15.15C15.6608 15.4404 15.7074 15.7399 15.729 16.057C15.7498 16.3616 15.7498 16.7327 15.7498 17.1771V20.5H18.0629V5.95C18.0629 5.37757 18.0623 4.99336 18.0382 4.69748C18.0147 4.41036 17.9728 4.27307 17.9267 4.18251C17.8068 3.94731 17.6156 3.75608 17.3804 3.63624C17.2899 3.5901 17.1526 3.54822 16.8654 3.52476C16.5696 3.50058 16.1854 3.5 15.6129 3.5H8.38753C7.8151 3.5 7.43088 3.50058 7.13501 3.52476C6.84788 3.54822 6.7106 3.5901 6.62004 3.63624C6.38484 3.75608 6.19361 3.94731 6.07377 4.18251C6.02763 4.27307 5.98574 4.41036 5.96229 4.69748C5.93811 4.99336 5.93753 5.37757 5.93753 5.95V20.5ZM14.2498 20.5V17.2024C14.2498 16.7262 14.2494 16.4066 14.2325 16.1591C14.2161 15.9184 14.1866 15.8012 14.1547 15.724C14.0278 15.4177 13.7844 15.1744 13.4782 15.0475C13.401 15.0156 13.2838 14.9861 13.0431 14.9697C12.7956 14.9528 12.476 14.9524 11.9998 14.9524C11.5236 14.9524 11.204 14.9528 10.9566 14.9697C10.7158 14.9861 10.5986 15.0156 10.5215 15.0475C10.2152 15.1744 9.97183 15.4177 9.84496 15.724C9.813 15.8012 9.78353 15.9184 9.7671 16.1591C9.75022 16.4066 9.74981 16.7262 9.74981 17.2024V20.5H14.2498Z" fill="black"/>
</svg>
