<svg width="24" height="24" viewBox="0 0 24 24" fill="none" xmlns="http://www.w3.org/2000/svg">
<path fill-rule="evenodd" clip-rule="evenodd" d="M11.6229 2.10177C11.8561 1.96608 12.1442 1.96608 12.3774 2.10177L21.6273 7.48468C21.8581 7.61899 22.0001 7.86588 22.0001 8.13291V21.25C22.0001 21.6642 21.6643 22 21.2501 22H15.568C15.1538 22 14.818 21.6642 14.818 21.25V17.4868C14.818 15.9305 13.5563 14.6689 12.0001 14.6689C10.4438 14.6689 9.18215 15.9305 9.18215 17.4868V21.25C9.18215 21.6642 8.84637 22 8.43215 22H2.75006C2.33585 22 2.00006 21.6642 2.00006 21.25V8.13291C2.00006 7.86588 2.14204 7.61899 2.37284 7.48468L11.6229 2.10177ZM3.50006 8.56421V20.5H7.68215V17.4868C7.68215 15.1021 9.61535 13.1689 12.0001 13.1689C14.3848 13.1689 16.318 15.1021 16.318 17.4868V20.5H20.5001V8.56421L12.0001 3.61775L3.50006 8.56421Z" fill="white"/>
</svg>
