<svg width="24" height="25" viewBox="0 0 24 25" fill="none" xmlns="http://www.w3.org/2000/svg">
<rect x="2.75" y="4.43201" width="18.5" height="15.3203" rx="4" stroke="black" stroke-width="1.5"/>
<circle cx="8.90112" cy="9.50623" r="1.81714" stroke="black" stroke-width="1.5"/>
<path d="M8.90151 13.6495C7.65515 13.6495 6.55064 14.3756 5.86779 15.4933C5.71228 15.7478 5.63453 15.8751 5.64888 16.039C5.65999 16.1659 5.74754 16.322 5.85008 16.3977C5.98245 16.4954 6.15897 16.4954 6.51201 16.4954L11.291 16.4954C11.6441 16.4954 11.8206 16.4954 11.9529 16.3977C12.0555 16.322 12.143 16.1659 12.1541 16.039C12.1685 15.8751 12.0907 15.7478 11.9352 15.4933C11.2524 14.3756 10.1479 13.6495 8.90151 13.6495Z" stroke="black" stroke-width="1.5" stroke-linecap="round" stroke-linejoin="round"/>
<path d="M14.9658 9.00891H18.5908" stroke="black" stroke-width="1.5" stroke-linecap="round"/>
<path d="M14.9658 12.0922H18.5908" stroke="black" stroke-width="1.5" stroke-linecap="round"/>
<path d="M14.9658 15.1755H18.5908" stroke="black" stroke-width="1.5" stroke-linecap="round"/>
</svg>
