<svg width="24" height="24" viewBox="0 0 24 24" fill="none" xmlns="http://www.w3.org/2000/svg">
<path fill-rule="evenodd" clip-rule="evenodd" d="M9.80633 3.5C8.16101 3.5 6.82721 4.83379 6.82721 6.47912C6.82721 8.12444 8.161 9.45823 9.80632 9.45823C11.4516 9.45823 12.7854 8.12444 12.7854 6.47912C12.7854 4.8338 11.4516 3.5 9.80633 3.5ZM5.43238 5.50974C5.87535 3.50202 7.66543 2 9.80633 2C11.9472 2 13.7373 3.50202 14.1803 5.50974L19.6775 5.50975C20.0917 5.50975 20.4275 5.84553 20.4275 6.25975C20.4275 6.67396 20.0917 7.00975 19.6775 7.00975L14.2543 7.00974C13.9919 9.23339 12.1005 10.9582 9.80632 10.9582C7.51212 10.9582 5.62077 9.23339 5.35831 7.00975L4.32227 7.00974C3.90805 7.00974 3.57227 6.67396 3.57227 6.25974C3.57227 5.84553 3.90805 5.50974 4.32227 5.50974L5.43238 5.50974ZM14.1936 14.5418C12.5483 14.5418 11.2145 15.8756 11.2145 17.5209C11.2145 19.1662 12.5483 20.5 14.1936 20.5C15.8389 20.5 17.1727 19.1662 17.1727 17.5209C17.1727 15.8756 15.8389 14.5418 14.1936 14.5418ZM9.74558 16.9903C10.008 14.7666 11.8994 13.0418 14.1936 13.0418C16.4878 13.0418 18.3792 14.7666 18.6416 16.9903H19.6775C20.0918 16.9903 20.4275 17.3261 20.4275 17.7403C20.4275 18.1545 20.0918 18.4903 19.6775 18.4903H18.5675C18.1246 20.498 16.3345 22 14.1936 22C12.0527 22 10.2626 20.498 9.81966 18.4903L4.32234 18.4903C3.90813 18.4903 3.57234 18.1545 3.57234 17.7403C3.57234 17.3261 3.90813 16.9903 4.32234 16.9903L9.74558 16.9903Z" fill="black"/>
</svg>
