<svg width="24" height="24" viewBox="0 0 24 24" fill="none" xmlns="http://www.w3.org/2000/svg">
<path fill-rule="evenodd" clip-rule="evenodd" d="M12.0002 3.5C8.058 3.5 4.8877 6.62928 4.8877 10.4583C4.8877 12.3723 5.91364 14.9188 7.40551 17.0158C8.14365 18.0534 8.96944 18.9425 9.79069 19.5647C10.6235 20.1956 11.3816 20.5 12.0002 20.5C12.6188 20.5 13.3769 20.1956 14.2097 19.5647C15.031 18.9425 15.8567 18.0534 16.5949 17.0158C18.0868 14.9188 19.1127 12.3723 19.1127 10.4583C19.1127 6.62928 15.9424 3.5 12.0002 3.5ZM3.3877 10.4583C3.3877 5.77299 7.25771 2 12.0002 2C16.7427 2 20.6127 5.77299 20.6127 10.4583C20.6127 12.8016 19.4068 15.6509 17.8171 17.8854C17.0145 19.0136 16.0871 20.0242 15.1155 20.7603C14.1555 21.4876 13.081 22 12.0002 22C10.9194 22 9.84493 21.4876 8.8849 20.7603C7.91329 20.0242 6.98588 19.0136 6.18325 17.8854C4.59358 15.6509 3.3877 12.8016 3.3877 10.4583ZM12.0002 8.35486C10.7576 8.35486 9.75024 9.36222 9.75024 10.6049C9.75024 11.8475 10.7576 12.8549 12.0002 12.8549C13.2429 12.8549 14.2502 11.8475 14.2502 10.6049C14.2502 9.36222 13.2429 8.35486 12.0002 8.35486ZM8.25024 10.6049C8.25024 8.53379 9.92918 6.85486 12.0002 6.85486C14.0713 6.85486 15.7502 8.53379 15.7502 10.6049C15.7502 12.6759 14.0713 14.3549 12.0002 14.3549C9.92918 14.3549 8.25024 12.6759 8.25024 10.6049Z" fill="black"/>
</svg>
