<svg width="24" height="24" viewBox="0 0 24 24" fill="none" xmlns="http://www.w3.org/2000/svg">
<path fill-rule="evenodd" clip-rule="evenodd" d="M2 6C2 5.58579 2.33579 5.25 2.75 5.25L21.25 5.25C21.6642 5.25 22 5.58579 22 6C22 6.41421 21.6642 6.75 21.25 6.75L2.75 6.75C2.33579 6.75 2 6.41421 2 6ZM2 12C2 11.5858 2.33579 11.25 2.75 11.25H21.25C21.6642 11.25 22 11.5858 22 12C22 12.4142 21.6642 12.75 21.25 12.75H2.75C2.33579 12.75 2 12.4142 2 12ZM2 18C2 17.5858 2.33579 17.25 2.75 17.25H21.25C21.6642 17.25 22 17.5858 22 18C22 18.4142 21.6642 18.75 21.25 18.75H2.75C2.33579 18.75 2 18.4142 2 18Z" fill="black"/>
</svg>
