<svg width="48" height="48" viewBox="0 0 24 24" fill="none" xmlns="http://www.w3.org/2000/svg">
<path fill-rule="evenodd" clip-rule="evenodd" d="M12.3953 3.99659C7.97517 3.77836 4.21501 7.1847 3.99678 11.6049C3.77855 16.025 7.18488 19.7852 11.605 20.0034C16.0252 20.2216 19.7854 16.8153 20.0036 12.3951C20.0442 11.5719 19.9593 10.7729 19.7662 10.0159C19.6638 9.61455 19.9062 9.20619 20.3076 9.1038C20.7089 9.00141 21.1173 9.24378 21.2197 9.64514C21.4494 10.5456 21.5499 11.4945 21.5018 12.4691C21.2427 17.7167 16.7787 21.7607 11.5311 21.5016C6.2835 21.2425 2.23952 16.7785 2.4986 11.5309C2.75768 6.28331 7.22172 2.23934 12.4693 2.49842C13.1426 2.53166 13.7969 2.63429 14.4253 2.79929C14.8259 2.90449 15.0654 3.31454 14.9602 3.71518C14.855 4.11581 14.4449 4.3553 14.0443 4.25011C13.5157 4.11131 12.9643 4.02469 12.3953 3.99659ZM18.2132 2.74387C18.6274 2.74387 18.9632 3.07966 18.9632 3.49387V5.10751H20.5769C20.9911 5.10751 21.3269 5.4433 21.3269 5.85751C21.3269 6.27173 20.9911 6.60751 20.5769 6.60751H18.9632V8.22117C18.9632 8.63538 18.6274 8.97117 18.2132 8.97117C17.799 8.97117 17.4632 8.63538 17.4632 8.22117V6.60751H15.8496C15.4354 6.60751 15.0996 6.27173 15.0996 5.85751C15.0996 5.4433 15.4354 5.10751 15.8496 5.10751H17.4632V3.49387C17.4632 3.07966 17.799 2.74387 18.2132 2.74387ZM12.0002 6.24997C12.4144 6.24997 12.7502 6.58576 12.7502 6.99997V7.5302C14.205 7.54287 15.3804 8.72611 15.3804 10.1839C15.3804 10.5981 15.0446 10.9339 14.6304 10.9339C14.2162 10.9339 13.8804 10.5981 13.8804 10.1839C13.8804 9.55454 13.3765 9.0429 12.7502 9.03034V11.2625H12.7767C14.2147 11.2625 15.3804 12.4282 15.3804 13.8662C15.3804 15.3041 14.2147 16.4698 12.7767 16.4698H12.7502V17C12.7502 17.4142 12.4144 17.75 12.0002 17.75C11.586 17.75 11.2502 17.4142 11.2502 17V16.4698H11.2236C9.78566 16.4698 8.61995 15.3041 8.61995 13.8662C8.61995 13.452 8.95574 13.1162 9.36995 13.1162C9.78417 13.1162 10.12 13.452 10.12 13.8662C10.12 14.4757 10.6141 14.9698 11.2236 14.9698H11.2502V12.7625H11.2362C9.79127 12.7625 8.61995 11.5912 8.61995 10.1463C8.61995 8.70141 9.79127 7.5301 11.2362 7.5301H11.2502V6.99997C11.2502 6.58576 11.586 6.24997 12.0002 6.24997ZM11.2502 9.0301H11.2362C10.6197 9.0301 10.12 9.52984 10.12 10.1463C10.12 10.7628 10.6197 11.2625 11.2362 11.2625H11.2502V9.0301ZM12.7502 12.7625V14.9698H12.7767C13.3862 14.9698 13.8804 14.4757 13.8804 13.8662C13.8804 13.2566 13.3862 12.7625 12.7767 12.7625H12.7502Z" fill="white"/>
</svg>
