<svg width="24" height="24" viewBox="0 0 24 24" fill="none" xmlns="http://www.w3.org/2000/svg">
<path fill-rule="evenodd" clip-rule="evenodd" d="M12 3.5C7.30558 3.5 3.5 7.30558 3.5 12C3.5 16.6944 7.30558 20.5 12 20.5C16.6944 20.5 20.5 16.6944 20.5 12C20.5 7.30558 16.6944 3.5 12 3.5ZM2 12C2 6.47715 6.47715 2 12 2C17.5228 2 22 6.47715 22 12C22 17.5228 17.5228 22 12 22C6.47715 22 2 17.5228 2 12ZM16.773 7.22701C16.9658 7.41983 17.0388 7.7021 16.9636 7.96421L15.0716 14.5575C15.0003 14.806 14.806 15.0002 14.5576 15.0715L7.96426 16.9635C7.70215 17.0387 7.41988 16.9658 7.22706 16.773C7.03424 16.5801 6.96127 16.2979 7.03648 16.0358L8.92847 9.44246C8.99978 9.19397 9.19403 8.99973 9.44251 8.92842L16.0358 7.03643C16.2979 6.96122 16.5802 7.03419 16.773 7.22701ZM11.0798 10.0191L13.9809 12.9202L15.1484 8.85162L11.0798 10.0191ZM12.9202 13.9808L8.85167 15.1483L10.0192 11.0798L12.9202 13.9808Z" fill="black"/>
</svg>
