<svg width="19" height="25" viewBox="0 0 19 25" fill="none" xmlns="http://www.w3.org/2000/svg">
<g clip-path="url(#clip0_4062_37944)">
<path d="M18.0615 18.092H18.2932V23.4299H17.4077C11.6808 23.4299 8.37048 20.1941 8.37048 14.9058V12.1748L10.2325 11.7196C10.776 11.5822 11.2703 11.2954 11.6593 10.8917C12.0484 10.4881 12.3167 9.98364 12.4339 9.43545C12.5497 8.88882 12.5087 8.32065 12.3153 7.79641C12.122 7.27218 11.7844 6.81329 11.3415 6.47269C10.8982 6.13141 10.3684 5.92035 9.81189 5.86318C9.25525 5.806 8.69377 5.90497 8.19026 6.14898C7.68676 6.39301 7.26117 6.77243 6.96118 7.24474C6.66121 7.71705 6.49869 8.26357 6.49186 8.82303V20.4837H0.707031V8.61614C0.707031 8.26028 0.731859 7.90442 0.773238 7.54856C1.07608 5.45942 2.12766 3.55146 3.73226 2.17979C5.33686 0.808113 7.38517 0.0661584 9.496 0.0920077C11.4085 0.0731638 13.2749 0.679909 14.8108 1.81984C16.3466 2.95977 17.4678 4.57042 18.0036 6.40649C18.5332 8.30994 18.3594 10.3458 17.5236 12.1334C16.8124 13.6535 15.6735 14.9333 14.2463 15.8161C14.7263 17.7444 15.736 18.1003 17.9953 18.1003L18.0615 18.092Z" fill="black"/>
</g>
<defs>
<clipPath id="clip0_4062_37944">
<rect width="18.2069" height="24" fill="white" transform="translate(0.707031 0.0921631)"/>
</clipPath>
</defs>
</svg>
