<svg width="24" height="24" viewBox="0 0 24 24" fill="none" xmlns="http://www.w3.org/2000/svg">
<path fill-rule="evenodd" clip-rule="evenodd" d="M11.247 2.67993C11.7234 2.45276 12.2769 2.45276 12.7534 2.67993C13.1159 2.85282 13.3468 3.16832 13.5169 3.44616C13.6892 3.7277 13.8747 4.10359 14.0919 4.54354L15.5333 7.46418C15.6049 7.60934 15.6456 7.69121 15.6796 7.75136C15.7006 7.78856 15.7112 7.80307 15.7141 7.8068C15.7361 7.83035 15.7623 7.84945 15.7915 7.86304C15.796 7.8647 15.8131 7.87031 15.8549 7.87878C15.9226 7.89248 16.0131 7.90588 16.1733 7.92916L19.3963 8.3975C19.8819 8.46803 20.2967 8.5283 20.6177 8.6052C20.9345 8.6811 21.3059 8.80319 21.5824 9.09459C21.9457 9.47751 22.1167 10.0039 22.0479 10.5273C21.9955 10.9255 21.7668 11.2426 21.5551 11.4902C21.3406 11.7411 21.0404 12.0337 20.689 12.3762L18.3568 14.6495C18.2409 14.7625 18.1756 14.8265 18.1289 14.8774C18.1 14.9089 18.0895 14.9234 18.0869 14.9274C18.0713 14.9555 18.0612 14.9864 18.0573 15.0184C18.0571 15.0231 18.0571 15.0411 18.0619 15.0835C18.0698 15.1522 18.085 15.2423 18.1124 15.4019L18.663 18.612C18.7459 19.0955 18.8168 19.5086 18.8428 19.8377C18.8686 20.1625 18.8672 20.5534 18.6755 20.9064C18.4236 21.3702 17.9758 21.6956 17.4568 21.7918C17.0619 21.8651 16.6896 21.7455 16.3887 21.6207C16.0838 21.4943 15.7128 21.2992 15.2786 21.0709L12.3957 19.5553C12.2524 19.4799 12.1714 19.4376 12.1086 19.4089C12.0697 19.3912 12.0526 19.3857 12.048 19.3844C12.0164 19.3782 11.9839 19.3782 11.9523 19.3844C11.9477 19.3857 11.9306 19.3912 11.8918 19.4089C11.829 19.4376 11.7479 19.4799 11.6046 19.5553L8.72176 21.0709C8.28753 21.2992 7.91653 21.4943 7.61163 21.6207C7.31072 21.7455 6.93848 21.8651 6.54354 21.7918C6.02456 21.6956 5.57675 21.3702 5.32484 20.9064C5.13313 20.5534 5.13179 20.1625 5.15751 19.8377C5.18356 19.5086 5.25444 19.0955 5.33739 18.6119L5.88796 15.4019C5.91533 15.2423 5.93052 15.1522 5.93841 15.0835C5.94329 15.0411 5.94324 15.0231 5.94304 15.0184C5.93913 14.9864 5.92909 14.9555 5.91347 14.9274C5.91083 14.9234 5.90031 14.9088 5.87143 14.8774C5.82471 14.8265 5.75943 14.7625 5.6435 14.6495L3.31127 12.3761C2.95993 12.0337 2.65974 11.7411 2.44524 11.4902C2.23355 11.2426 2.00484 10.9255 1.95246 10.5273C1.88363 10.0039 2.05467 9.47751 2.41796 9.09459C2.69442 8.80319 3.06582 8.6811 3.38263 8.6052C3.70365 8.5283 4.11848 8.46803 4.60401 8.3975L7.82708 7.92916C7.98728 7.90588 8.07771 7.89248 8.14542 7.87878C8.18727 7.87031 8.20436 7.8647 8.20882 7.86303C8.238 7.84945 8.26428 7.83035 8.28622 7.8068C8.28919 7.80306 8.2998 7.78855 8.32079 7.75136C8.35474 7.69121 8.39543 7.60934 8.46708 7.46418L9.90849 4.54356C10.1256 4.1036 10.3111 3.7277 10.4834 3.44617C10.6535 3.16832 10.8844 2.85282 11.247 2.67993ZM11.9085 4.02695C11.8945 4.04108 11.8465 4.09256 11.7628 4.2293C11.6305 4.44535 11.4751 4.75867 11.2379 5.2391L9.81218 8.12802C9.80324 8.14613 9.79428 8.16438 9.78528 8.18274C9.67742 8.40247 9.56214 8.63734 9.38509 8.82782C9.23083 8.99378 9.04581 9.12821 8.8403 9.22364C8.60444 9.33315 8.34544 9.37022 8.10313 9.40489C8.08289 9.40779 8.06276 9.41067 8.04278 9.41357L4.85466 9.87683C4.32448 9.95387 3.97844 10.0049 3.7321 10.0639C3.57619 10.1013 3.51238 10.1311 3.49462 10.14C3.45436 10.1888 3.43411 10.2512 3.43798 10.3143C3.44708 10.332 3.4812 10.3936 3.58538 10.5155C3.74999 10.708 3.99993 10.9527 4.38358 11.3267L6.69052 13.5754C6.70499 13.5895 6.71958 13.6036 6.73425 13.6179C6.9099 13.7884 7.09765 13.9706 7.22409 14.1978C7.33426 14.3958 7.40493 14.6133 7.43218 14.8383C7.46346 15.0964 7.41867 15.3542 7.37677 15.5954C7.37327 15.6155 7.36979 15.6355 7.36637 15.6554L6.82178 18.8307C6.73121 19.3587 6.67282 19.7036 6.65283 19.9561C6.64017 20.1159 6.64878 20.1858 6.65181 20.2055C6.6858 20.2589 6.73882 20.2974 6.80009 20.3132C6.81972 20.31 6.88885 20.2966 7.03694 20.2352C7.27093 20.1381 7.58087 19.976 8.05509 19.7267L10.9066 18.2276C10.9245 18.2182 10.9425 18.2087 10.9606 18.1991C11.177 18.0848 11.4083 17.9625 11.6635 17.9125C11.8858 17.8689 12.1145 17.8689 12.3369 17.9125C12.5921 17.9625 12.8234 18.0848 13.0398 18.1991C13.0579 18.2087 13.0758 18.2182 13.0937 18.2276L15.9453 19.7267C16.4195 19.976 16.7294 20.1381 16.9634 20.2352C17.1115 20.2966 17.1806 20.31 17.2003 20.3132C17.2615 20.2974 17.3145 20.2589 17.3485 20.2055C17.3516 20.1858 17.3602 20.1159 17.3475 19.9561C17.3275 19.7036 17.2691 19.3587 17.1786 18.8307L16.634 15.6554C16.6306 15.6355 16.6271 15.6155 16.6236 15.5954C16.5817 15.3542 16.5369 15.0964 16.5682 14.8383C16.5954 14.6133 16.6661 14.3958 16.7763 14.1978C16.9027 13.9706 17.0904 13.7884 17.2661 13.6179C17.2808 13.6036 17.2954 13.5895 17.3098 13.5754L19.6168 11.3267C20.0004 10.9527 20.2504 10.708 20.415 10.5155C20.5191 10.3936 20.5533 10.332 20.5624 10.3143C20.5662 10.2512 20.546 10.1888 20.5057 10.14C20.488 10.1311 20.4242 10.1013 20.2682 10.0639C20.0219 10.0049 19.6759 9.95387 19.1457 9.87683L15.9576 9.41357C15.9376 9.41067 15.9175 9.40779 15.8972 9.40489C15.6549 9.37022 15.3959 9.33315 15.16 9.22364C14.9545 9.12821 14.7695 8.99378 14.6153 8.82782C14.4382 8.63734 14.3229 8.40247 14.2151 8.18274C14.2061 8.16438 14.1971 8.14613 14.1882 8.12802L12.7624 5.2391C12.5253 4.75867 12.3698 4.44535 12.2376 4.2293C12.1539 4.09256 12.1058 4.04108 12.0918 4.02695C12.0329 4.00375 11.9674 4.00375 11.9085 4.02695Z" fill="black"/>
</svg>
